PathFileType  4	(X/Y/Z) C:\Users\antoi\Documents\MyRepositories\mobilecap\ResultsAnalysis
DataRate	CameraRate	NumFrames	NumMarkers	Units	OrigDataRate	OrigDataStartFrame	OrigNumFrames
100.0	100.0	7	51	mm	100.0	34	134
Frame#	Time	r_knee			r_shank_antsup			r_ankle			r_calc			r_5meta			r_toe			L_knee			L_shank_antsup			L_ankle			L_calc			L_5meta			L_toe			r_sh2			r_sh3			r_sh4			L_sh2			L_sh3			r_thigh1			r_thigh2			r_thigh3			r_thigh4			r_thigh5			L_thigh1			L_thigh2			L_thigh3			L_thigh4			r.ASIS			r.PSIS			L.ASIS			L.PSIS			C7			R_Shoulder			L_Shoulder			R_Sternum			L_Sternum			R_humerus			R_elbow_med			R_elbow_lat			R_forearm			R_wrist_radius			R_wrist_ulna			L_humerus			L_elbow_med			L_elbow_lat			L_forearm			L_wrist_radius			L_wrist_ulna			R_HJC			L_HJC			R_HJC_reg			L_HJC_reg			
		X1	Y1	Z1	X2	Y2	Z2	X3	Y3	Z3	X4	Y4	Z4	X5	Y5	Z5	X6	Y6	Z6	X7	Y7	Z7	X8	Y8	Z8	X9	Y9	Z9	X10	Y10	Z10	X11	Y11	Z11	X12	Y12	Z12	X13	Y13	Z13	X14	Y14	Z14	X15	Y15	Z15	X16	Y16	Z16	X17	Y17	Z17	X18	Y18	Z18	X19	Y19	Z19	X20	Y20	Z20	X21	Y21	Z21	X22	Y22	Z22	X23	Y23	Z23	X24	Y24	Z24	X25	Y25	Z25	X26	Y26	Z26	X27	Y27	Z27	X28	Y28	Z28	X29	Y29	Z29	X30	Y30	Z30	X31	Y31	Z31	X32	Y32	Z32	X33	Y33	Z33	X34	Y34	Z34	X35	Y35	Z35	X36	Y36	Z36	X37	Y37	Z37	X38	Y38	Z38	X39	Y39	Z39	X40	Y40	Z40	X41	Y41	Z41	X42	Y42	Z42	X43	Y43	Z43	X44	Y44	Z44	X45	Y45	Z45	X46	Y46	Z46	X47	Y47	Z47	X48	Y48	Z48	X49	Y49	Z49	X50	Y50	Z50	X51	Y51	Z51	

34	0.33000000	283.52576	491.94906	-33.29068	310.56288	417.94686	-61.95532	188.54393	97.44874	-70.69553	111.69457	67.87220	-92.25896	293.96851	44.51894	-56.20962	331.07116	69.16689	-121.89130	480.09247	532.15786	-294.39308	485.76208	434.59126	-303.01001	311.88161	172.64669	-291.67023	233.85864	163.38469	-246.90795	386.61436	72.54663	-321.76160	433.32354	85.32593	-268.14583	274.63289	307.88627	-41.78503	243.42547	438.19734	-15.91008	208.33314	331.22991	-16.79557	407.34191	478.31801	-303.25147	358.36496	366.51281	-313.24256	362.13171	805.85221	10.25500	354.39978	693.12641	-7.09511	300.61849	672.40049	26.75541	253.82123	808.11845	45.05437	245.50857	692.00591	23.55951	390.58416	780.43509	-338.33748	462.75218	664.76326	-315.34523	295.91069	725.28344	-305.44914	373.76283	608.13954	-291.19766	366.25511	982.10606	-16.14868	173.57239	1009.09646	-97.28468	370.48702	965.57763	-265.45599	164.92271	1006.47811	-197.87594	160.10121	1420.85044	-170.34567	263.54605	1394.34420	5.93351	236.08445	1387.76523	-348.98340	299.35457	1394.73755	-152.02961	302.51613	1395.58649	-194.00193	289.96837	1267.17854	76.03287	242.22335	1049.94687	68.89891	275.97363	1074.03433	128.49943	367.54998	963.79586	120.61253	419.66895	840.01662	122.58517	413.04932	837.50822	157.63843	268.74151	1276.71969	-410.81300	209.03174	1043.40853	-390.93428	259.70782	1066.02015	-446.75487	322.97377	970.45125	-410.77682	360.69131	816.29485	-400.83874	364.13560	820.79546	-436.15109	292.21078	898.19411	-36.86255	293.59618	889.00308	-243.12499	305.28970	900.59654	-43.34704	291.16533	896.32136	-207.61148	
35	0.34000000	286.59346	491.67137	-33.28423	312.97211	417.46647	-61.96121	188.70956	97.67974	-70.89087	111.65580	68.03851	-92.48782	293.97857	44.50923	-56.23395	331.27158	69.03875	-121.93493	495.15761	533.47560	-292.69699	505.99668	436.16020	-301.09283	348.03187	163.32878	-291.59614	270.47713	149.35586	-247.66178	429.26484	67.94177	-320.48362	474.46100	83.75332	-266.44607	276.22801	307.62199	-41.76875	245.97778	438.23383	-15.96101	210.18397	331.49293	-16.87148	424.76835	474.68362	-303.33421	383.07062	360.06313	-313.57193	370.18179	804.35861	10.27697	360.67858	691.82259	-7.45685	306.46432	671.83962	26.27562	261.75245	808.17509	44.77401	251.75252	692.25762	23.01599	404.80260	781.62763	-337.64430	477.21767	666.43270	-313.62542	309.84211	725.81561	-306.40637	388.11611	609.08107	-291.42350	376.27280	981.12230	-15.41833	184.18391	1008.87897	-98.35832	382.40927	965.83322	-264.89692	176.28535	1006.60789	-198.99127	171.19510	1420.69742	-169.88176	274.86729	1394.21728	6.22658	246.76848	1387.52358	-348.58087	310.45578	1394.56888	-151.73071	313.53557	1395.37533	-193.74480	302.81136	1267.16490	76.00828	257.72008	1049.34610	68.83241	291.78379	1073.68618	128.17579	385.43113	965.28910	118.15304	440.05675	842.56600	118.37530	434.05754	839.67141	153.50629	278.25176	1276.30868	-410.71850	216.54790	1043.58654	-390.68171	267.08360	1065.69245	-446.76091	329.51677	969.36672	-411.59987	365.56709	814.76704	-402.51847	368.69656	819.26198	-437.99141	302.13412	897.46189	-37.31984	305.29014	889.22357	-243.60450	315.31022	900.05216	-43.36957	302.40259	896.34100	-207.83522	
36	0.35000000	289.68703	491.39028	-33.28102	315.43797	416.99685	-61.94092	188.88545	97.93777	-71.09465	111.61845	68.21819	-92.74956	293.97906	44.49880	-56.25948	331.46502	68.91005	-121.97874	509.41546	534.11414	-291.07923	525.69234	437.50659	-299.04833	384.85655	154.48486	-291.50056	307.99872	135.79507	-248.44993	472.36863	64.19523	-318.99482	515.83959	83.03857	-264.54591	277.82646	307.35198	-41.71961	248.56643	438.28749	-16.03137	212.05169	331.78980	-16.97691	441.92184	470.50927	-303.65751	407.95108	353.47105	-314.10709	378.18477	802.76498	10.37698	366.94985	690.48313	-7.71527	312.26945	671.24012	25.80432	269.66834	808.16139	44.38152	257.98727	692.45800	22.39843	418.49134	782.21889	-336.96433	490.89534	667.33827	-311.94332	323.24212	726.00673	-306.96877	401.58484	609.53940	-291.27806	386.40008	979.93226	-14.81932	194.88929	1008.53456	-99.46507	394.33754	965.75718	-264.48403	187.72875	1006.52284	-200.13615	182.34119	1420.31197	-169.44318	286.27055	1393.82837	6.50022	257.55045	1387.05878	-348.22733	321.66692	1394.13472	-151.44032	324.64112	1394.88854	-193.51061	315.73972	1266.88982	75.91552	273.24415	1048.54343	68.67727	307.66673	1073.11886	127.75855	403.30918	966.60169	115.56711	460.28880	844.96302	114.01902	454.95080	841.71082	149.21892	287.86357	1275.64432	-410.60709	224.18809	1043.52451	-390.30743	274.53398	1065.14978	-446.69714	336.08605	968.06118	-412.36510	370.45712	813.04773	-404.17830	373.28958	817.53837	-439.79080	312.14102	896.55592	-37.83693	316.96190	889.16191	-244.12257	325.35068	899.36634	-43.45095	313.63907	896.07590	-208.12865	
37	0.36000000	292.80568	491.11052	-33.26272	317.96009	416.53972	-61.86891	189.08072	98.22958	-71.29486	111.60220	68.43479	-93.02134	293.97791	44.48696	-56.28045	331.64211	68.78125	-122.01330	522.81583	534.06196	-289.56730	544.72580	438.66212	-296.93856	422.25720	146.36283	-291.38406	346.30846	122.98038	-249.29095	515.76050	61.54585	-317.24622	557.30696	83.41312	-262.40027	279.43925	307.09197	-41.62395	251.18762	438.36264	-16.10774	213.92270	332.12532	-17.09888	458.79571	465.92568	-304.08718	432.91713	346.92679	-314.75419	386.16793	801.09279	10.55784	373.19357	689.12180	-7.82660	318.02765	670.62010	25.36385	277.55311	808.09122	43.87773	264.21259	692.61515	21.72029	431.58245	782.16260	-336.33513	503.72351	667.42036	-310.33727	336.03016	725.86911	-307.15476	414.05622	609.47876	-290.78626	396.62482	978.57555	-14.37930	205.70502	1008.05710	-100.61455	406.30502	965.36682	-264.21444	199.27394	1006.21814	-201.31584	193.54055	1419.69799	-169.03416	297.77729	1393.18505	6.74628	268.42416	1386.37276	-347.92852	332.98012	1393.45764	-151.17045	335.82715	1394.15623	-193.30054	328.74863	1266.36122	75.75217	288.82188	1047.53056	68.42312	323.63780	1072.33202	127.22153	421.17153	967.72911	112.86681	480.35297	847.19877	109.53295	475.70443	843.61502	144.79277	297.59253	1274.73646	-410.49182	231.98292	1043.22243	-389.82323	282.08298	1064.40590	-446.57480	342.70680	966.54737	-413.07496	375.35687	811.14626	-405.81663	377.93634	815.65043	-441.51477	322.25275	895.49782	-38.41507	328.64633	888.82651	-244.68357	335.43758	898.55908	-43.61926	324.90949	895.54816	-208.50109	
38	0.37000000	295.96583	490.83829	-33.21086	320.55132	416.09136	-61.73097	189.30379	98.55796	-71.47616	111.62291	68.71741	-93.27961	293.98829	44.47306	-56.28876	331.80058	68.64967	-122.02885	535.30979	533.31649	-288.18862	562.98407	439.65732	-294.82905	460.06500	139.20938	-291.24346	385.23267	111.16436	-250.22529	559.22722	60.25676	-315.18792	598.64002	85.11136	-259.94443	281.10106	306.86609	-41.47691	253.85455	438.46032	-16.17337	215.80527	332.50008	-17.21555	475.36887	461.07054	-304.47661	457.84016	340.61238	-315.40992	394.14709	799.36067	10.81197	379.39458	687.74644	-7.74573	323.74190	669.99593	24.97846	285.39594	807.98240	43.28040	270.43839	692.73993	20.99469	444.04256	781.42976	-335.77557	515.67185	666.64197	-308.86003	348.13973	725.40856	-307.00391	425.46537	608.86198	-290.03581	406.93351	977.08818	-14.12377	216.64325	1007.43957	-101.81622	418.34618	964.68175	-264.08015	210.94152	1005.68899	-202.53708	204.79643	1418.85875	-168.65996	309.40821	1392.29722	6.95679	279.39102	1385.46970	-347.68524	344.37940	1392.56162	-150.93338	347.09073	1393.20913	-193.11877	341.83763	1265.59021	75.51785	304.49080	1046.28993	68.06174	339.70547	1071.33720	126.53439	438.99732	968.66733	110.06253	500.24528	849.26889	104.93217	496.29371	845.37181	140.24466	307.45255	1273.59958	-410.38734	239.94139	1042.69694	-389.25653	289.74897	1063.47401	-446.40587	349.40536	964.83968	-413.73380	380.24242	809.06669	-407.43918	382.63480	813.61472	-443.13544	332.48753	894.30635	-39.05550	340.37925	888.22746	-245.29121	345.59301	897.64969	-43.90327	336.25061	894.78070	-208.96094	
39	0.38000000	299.20051	490.57967	-33.10956	323.23856	415.64338	-61.52165	189.56022	98.92354	-71.62323	111.69578	69.09394	-93.50463	294.02471	44.45625	-56.27605	331.94785	68.50946	-122.01666	546.87585	531.89238	-286.97372	580.39955	440.52677	-292.77196	498.02788	133.25163	-291.06020	424.52934	100.55523	-251.29452	602.49387	60.58777	-312.77857	639.52487	88.32436	-257.10140	282.85873	306.69778	-41.27774	256.59629	438.57724	-16.21034	217.72393	332.91263	-17.30225	491.61976	456.07906	-304.70725	482.56897	334.68985	-315.98152	402.12500	797.58276	11.12304	385.54944	686.36036	-7.43452	329.43082	669.37917	24.66764	293.20292	807.85213	42.62243	276.68581	692.84297	20.23160	455.87349	780.02216	-335.29074	526.74625	665.00119	-307.58246	359.53532	724.62311	-306.57926	435.82430	607.66367	-289.16854	417.31570	975.49778	-14.06110	227.70810	1006.67579	-103.07653	430.49344	963.72354	-264.06796	222.74879	1004.92974	-203.80739	216.11661	1417.79738	-168.32627	321.17695	1391.17698	7.12437	290.46274	1384.35746	-347.49566	355.84608	1391.46801	-150.74159	358.43545	1392.07244	-192.97194	355.01176	1264.59152	75.21282	320.28612	1044.80430	67.58827	355.85913	1070.15845	125.67626	456.76258	969.41414	107.16315	519.96935	851.17245	100.22883	516.69469	846.96877	135.59181	317.45392	1272.25178	-410.30849	248.04892	1041.97989	-388.64781	297.54613	1062.36629	-446.20325	356.20697	962.95446	-414.34548	385.08541	806.80900	-409.05074	387.36782	811.43723	-444.63729	342.85801	892.99502	-39.75584	352.19513	887.37612	-245.94475	355.82993	896.65528	-44.31857	347.69763	893.79147	-209.51121	
40	0.39000000	302.55588	490.33698	-32.94993	326.06004	415.18414	-61.24225	189.85068	99.32921	-71.72566	111.83514	69.58179	-93.68635	294.09659	44.43488	-56.23679	332.10013	68.35262	-121.97036	557.55171	529.83582	-285.96115	596.96999	441.30465	-290.80138	535.80746	128.67018	-290.79247	463.88625	91.30356	-252.51002	645.20358	62.73819	-309.99187	679.55160	93.13987	-253.79780	284.75470	306.59496	-41.02631	259.45472	438.70566	-16.20436	219.71064	333.36193	-17.33996	507.54458	451.07490	-304.72938	506.95129	329.29072	-316.40725	410.10184	795.76939	11.47068	391.67454	684.96454	-6.87954	335.13240	668.77413	24.43896	301.00461	807.70966	41.94472	282.98831	692.92837	19.43816	467.11068	777.98430	-334.88941	536.99276	662.54512	-306.59114	370.23199	723.51255	-305.96606	445.23627	605.89208	-288.35280	427.76501	973.82280	-14.17385	238.89445	1005.75978	-104.39711	442.77555	962.51431	-264.15827	234.70682	1003.93581	-205.13313	227.51172	1416.51819	-168.03892	333.08675	1389.83798	7.24180	301.65647	1383.04758	-347.35920	367.36534	1390.19305	-150.60769	369.87026	1390.76413	-192.86703	368.27953	1263.38224	74.83603	336.21832	1043.07218	67.00122	372.06851	1068.82524	124.64473	474.44484	969.96894	104.17715	539.52946	852.90785	95.43141	536.88560	848.39410	130.85179	327.60344	1270.71297	-410.27010	256.28155	1041.10772	-388.04073	305.48656	1061.09426	-445.98226	363.13534	960.90944	-414.91310	389.87439	804.37270	-410.64474	392.12340	809.11925	-446.01856	353.36909	891.57188	-40.50689	364.12543	886.28469	-246.63552	366.15361	895.58442	-44.86066	359.28242	892.59127	-210.14731	
